<svg xmlns="http://www.w3.org/2000/svg" xmlns:xlink="http://www.w3.org/1999/xlink" width="500" zoomAndPan="magnify" viewBox="0 0 375 374.999991" height="500" preserveAspectRatio="xMidYMid meet" version="1.2"><defs><clipPath id="e016e43ef4"><path d="M 39.195312 131 L 140.445312 131 L 140.445312 232.25 L 39.195312 232.25 Z M 39.195312 131 "/></clipPath><clipPath id="c67ce3c129"><path d="M 89 181 L 140.445312 181 L 140.445312 232.25 L 89 232.25 Z M 89 181 "/></clipPath><clipPath id="1155ac3f41"><path d="M 39.195312 131 L 140.445312 131 L 140.445312 232.25 L 39.195312 232.25 Z M 39.195312 131 "/></clipPath></defs><g id="18bceeaea4"><rect x="0" width="375" y="0" height="374.999991" style="fill:#ffffff;fill-opacity:1;stroke:none;"/><rect x="0" width="375" y="0" height="374.999991" style="fill:#ffffff;fill-opacity:1;stroke:none;"/><g clip-rule="nonzero" clip-path="url(#e016e43ef4)"><path style=" stroke:none;fill-rule:nonzero;fill:#8c52ff;fill-opacity:1;" d="M 115.386719 131 C 101.359375 131 89.988281 142.371094 89.988281 156.398438 L 89.988281 181.792969 L 89.992188 181.792969 L 89.988281 181.796875 L 64.589844 181.796875 C 50.5625 181.796875 39.195312 193.167969 39.195312 207.191406 C 39.195312 221.21875 50.5625 232.589844 64.589844 232.589844 L 140.785156 232.589844 L 140.785156 156.398438 C 140.785156 142.371094 129.410156 131 115.386719 131 Z M 115.386719 131 "/></g><g clip-rule="nonzero" clip-path="url(#c67ce3c129)"><path style=" stroke:none;fill-rule:nonzero;fill:#ffffff;fill-opacity:1;" d="M 89.988281 181.796875 L 140.785156 181.796875 L 140.785156 232.589844 L 89.988281 232.589844 Z M 89.988281 181.796875 "/></g><g clip-rule="nonzero" clip-path="url(#1155ac3f41)"><path style=" stroke:none;fill-rule:nonzero;fill:#8c52ff;fill-opacity:1;" d="M 140.785156 156.398438 L 140.785156 181.792969 L 89.988281 181.792969 L 89.988281 156.398438 C 89.988281 142.371094 101.359375 131 115.386719 131 C 129.410156 131 140.785156 142.371094 140.785156 156.398438 Z M 39.195312 207.191406 C 39.195312 221.21875 50.5625 232.589844 64.589844 232.589844 L 89.988281 232.589844 L 89.988281 181.796875 L 64.589844 181.796875 C 50.5625 181.796875 39.195312 193.167969 39.195312 207.191406 Z M 130.511719 202.054688 L 120.523438 202.054688 L 120.523438 192.070312 L 110.246094 192.070312 L 110.246094 202.054688 L 100.261719 202.054688 L 100.261719 212.332031 L 110.246094 212.332031 L 110.246094 222.316406 L 120.523438 222.316406 L 120.523438 212.332031 L 130.507812 212.332031 L 130.507812 202.054688 Z M 130.511719 202.054688 "/></g><g style="fill:#8c52ff;fill-opacity:1;"><g transform="translate(150.715864, 193.308825)"><path style="stroke:none" d="M 25.765625 -6.421875 L 25.765625 0 L 3.390625 0 L 3.390625 -29.1875 L 11 -29.1875 L 11 -6.421875 Z M 25.765625 -6.421875 "/></g></g><g style="fill:#8c52ff;fill-opacity:1;"><g transform="translate(177.268502, 193.308825)"><path style="stroke:none" d="M 11 0 L 3.390625 0 L 3.390625 -29.1875 L 11 -29.1875 Z M 11 0 "/></g></g><g style="fill:#8c52ff;fill-opacity:1;"><g transform="translate(190.544815, 193.308825)"><path style="stroke:none" d="M 16.703125 -29.78125 C 19.492188 -29.78125 21.828125 -29.328125 23.703125 -28.421875 C 25.578125 -27.515625 27.03125 -26.289062 28.0625 -24.75 C 29.09375 -23.21875 29.707031 -21.492188 29.90625 -19.578125 L 29.953125 -19.15625 L 22.328125 -19.15625 L 22.25 -19.578125 C 21.625 -22.648438 19.75 -24.1875 16.625 -24.1875 C 14.820312 -24.1875 13.304688 -23.414062 12.078125 -21.875 C 10.847656 -20.34375 10.234375 -18 10.234375 -14.84375 C 10.234375 -12.394531 10.535156 -10.453125 11.140625 -9.015625 C 11.742188 -7.578125 12.53125 -6.546875 13.5 -5.921875 C 14.476562 -5.296875 15.535156 -4.984375 16.671875 -4.984375 C 18.160156 -4.984375 19.367188 -5.421875 20.296875 -6.296875 C 21.234375 -7.171875 21.851562 -8.414062 22.15625 -10.03125 L 22.25 -10.453125 L 29.859375 -10.453125 L 29.8125 -10.03125 C 29.59375 -7.6875 28.882812 -5.722656 27.6875 -4.140625 C 26.488281 -2.566406 24.921875 -1.382812 22.984375 -0.59375 C 21.054688 0.195312 18.863281 0.59375 16.40625 0.59375 C 13.8125 0.59375 11.441406 0.0351562 9.296875 -1.078125 C 7.160156 -2.191406 5.457031 -3.863281 4.1875 -6.09375 C 2.914062 -8.320312 2.28125 -11.082031 2.28125 -14.375 C 2.28125 -17.757812 2.9375 -20.59375 4.25 -22.875 C 5.5625 -25.164062 7.3125 -26.890625 9.5 -28.046875 C 11.6875 -29.203125 14.085938 -29.78125 16.703125 -29.78125 Z M 16.703125 -29.78125 "/></g></g><g style="fill:#8c52ff;fill-opacity:1;"><g transform="translate(221.579267, 193.308825)"><path style="stroke:none" d="M 25.765625 -5.921875 L 25.765625 0 L 3.390625 0 L 3.390625 -29.1875 L 25.328125 -29.1875 L 25.328125 -23.265625 L 11 -23.265625 L 11 -17.59375 L 24.484375 -17.59375 L 24.484375 -11.671875 L 11 -11.671875 L 11 -5.921875 Z M 25.765625 -5.921875 "/></g></g><g style="fill:#8c52ff;fill-opacity:1;"><g transform="translate(248.596992, 193.308825)"><path style="stroke:none" d="M 26.140625 -7.109375 C 26.335938 -5.472656 26.613281 -4.097656 26.96875 -2.984375 C 27.320312 -1.867188 27.78125 -0.875 28.34375 0 L 20.046875 0 C 19.710938 -1.039062 19.4375 -2.007812 19.21875 -2.90625 C 19.007812 -3.8125 18.832031 -4.789062 18.6875 -5.84375 C 18.5 -7.445312 18.097656 -8.695312 17.484375 -9.59375 C 16.878906 -10.5 16.082031 -10.984375 15.09375 -11.046875 C 14.675781 -11.066406 14.273438 -11.078125 13.890625 -11.078125 C 13.515625 -11.078125 13.113281 -11.078125 12.6875 -11.078125 L 11 -11.078125 L 11 0 L 3.390625 0 L 3.390625 -29.1875 L 14.96875 -29.1875 C 15.875 -29.1875 16.664062 -29.171875 17.34375 -29.140625 C 18.019531 -29.109375 18.753906 -29.050781 19.546875 -28.96875 C 20.953125 -28.800781 22.253906 -28.4375 23.453125 -27.875 C 24.648438 -27.3125 25.613281 -26.492188 26.34375 -25.421875 C 27.082031 -24.347656 27.453125 -22.953125 27.453125 -21.234375 C 27.453125 -17.535156 25.492188 -15.109375 21.578125 -13.953125 C 23.097656 -13.421875 24.1875 -12.582031 24.84375 -11.4375 C 25.507812 -10.300781 25.941406 -8.859375 26.140625 -7.109375 Z M 11 -16.578125 L 13.75 -16.578125 C 14.144531 -16.578125 14.507812 -16.578125 14.84375 -16.578125 C 15.1875 -16.578125 15.5 -16.59375 15.78125 -16.625 C 16.757812 -16.707031 17.625 -16.972656 18.375 -17.421875 C 19.125 -17.878906 19.5 -18.710938 19.5 -19.921875 C 19.5 -21.160156 19.160156 -22 18.484375 -22.4375 C 17.804688 -22.875 16.972656 -23.132812 15.984375 -23.21875 C 15.703125 -23.25 15.390625 -23.265625 15.046875 -23.265625 C 14.710938 -23.265625 14.347656 -23.265625 13.953125 -23.265625 L 11 -23.265625 Z M 11 -16.578125 "/></g></g><g style="fill:#8c52ff;fill-opacity:1;"><g transform="translate(277.432817, 193.308825)"><path style="stroke:none" d="M 11 0 L 3.390625 0 L 3.390625 -29.1875 L 11 -29.1875 Z M 11 0 "/></g></g><g style="fill:#8c52ff;fill-opacity:1;"><g transform="translate(290.70913, 193.308825)"><path style="stroke:none" d="M 19.796875 -7.578125 L 10.703125 -7.578125 L 8.25 0 L 0.171875 0 L 10.703125 -29.1875 L 20 -29.1875 L 30.53125 0 L 22.25 0 Z M 15.265625 -22.453125 L 12.5625 -13.5 L 17.96875 -13.5 Z M 15.265625 -22.453125 "/></g></g><g style="fill:#8c52ff;fill-opacity:1;"><g transform="translate(320.602576, 193.308825)"><path style="stroke:none" d=""/></g></g><g style="fill:#000000;fill-opacity:1;"><g transform="translate(150.715864, 222.74376)"><path style="stroke:none" d="M 19.671875 -17.234375 L 19.671875 0 L 17.53125 0 L 17.53125 -8.859375 C 17.53125 -9.941406 17.53125 -11.046875 17.53125 -12.171875 C 17.539062 -13.304688 17.554688 -14.34375 17.578125 -15.28125 C 17.296875 -14.34375 16.96875 -13.304688 16.59375 -12.171875 C 16.21875 -11.035156 15.847656 -9.941406 15.484375 -8.890625 L 12.4375 0 L 9.734375 0 L 6.640625 -8.9375 C 6.296875 -9.96875 5.9375 -11.046875 5.5625 -12.171875 C 5.195312 -13.296875 4.875 -14.316406 4.59375 -15.234375 C 4.625 -14.296875 4.640625 -13.265625 4.640625 -12.140625 C 4.640625 -11.023438 4.640625 -9.929688 4.640625 -8.859375 L 4.640625 0 L 2.5 0 L 2.5 -17.234375 L 6.046875 -17.234375 L 11.140625 -1.828125 L 16.203125 -17.234375 Z M 19.671875 -17.234375 "/></g></g><g style="fill:#000000;fill-opacity:1;"><g transform="translate(173.266491, 222.74376)"><path style="stroke:none" d="M 12.703125 -6.984375 C 12.703125 -6.890625 12.703125 -6.753906 12.703125 -6.578125 C 12.703125 -6.398438 12.6875 -6.195312 12.65625 -5.96875 L 3.078125 -5.96875 C 3.140625 -4.800781 3.347656 -3.875 3.703125 -3.1875 C 4.066406 -2.507812 4.519531 -2.023438 5.0625 -1.734375 C 5.613281 -1.441406 6.210938 -1.296875 6.859375 -1.296875 C 7.734375 -1.296875 8.484375 -1.550781 9.109375 -2.0625 C 9.742188 -2.582031 10.132812 -3.316406 10.28125 -4.265625 L 12.53125 -4.265625 C 12.363281 -3.203125 11.992188 -2.328125 11.421875 -1.640625 C 10.847656 -0.960938 10.15625 -0.460938 9.34375 -0.140625 C 8.539062 0.179688 7.679688 0.34375 6.765625 0.34375 C 5.617188 0.34375 4.59375 0.09375 3.6875 -0.40625 C 2.78125 -0.914062 2.0625 -1.679688 1.53125 -2.703125 C 1.007812 -3.734375 0.75 -5.019531 0.75 -6.5625 C 0.75 -8 1.019531 -9.238281 1.5625 -10.28125 C 2.113281 -11.332031 2.863281 -12.144531 3.8125 -12.71875 C 4.769531 -13.289062 5.847656 -13.578125 7.046875 -13.578125 C 8.253906 -13.578125 9.28125 -13.296875 10.125 -12.734375 C 10.96875 -12.179688 11.609375 -11.410156 12.046875 -10.421875 C 12.484375 -9.429688 12.703125 -8.285156 12.703125 -6.984375 Z M 6.984375 -11.9375 C 5.941406 -11.9375 5.066406 -11.566406 4.359375 -10.828125 C 3.648438 -10.097656 3.226562 -9.023438 3.09375 -7.609375 L 10.53125 -7.609375 C 10.4375 -8.992188 10.09375 -10.0625 9.5 -10.8125 C 8.90625 -11.5625 8.066406 -11.9375 6.984375 -11.9375 Z M 6.984375 -11.9375 "/></g></g><g style="fill:#000000;fill-opacity:1;"><g transform="translate(187.900794, 222.74376)"><path style="stroke:none" d="M 13.40625 -18.359375 L 13.40625 0 L 11.265625 0 L 11.265625 -2.125 L 10.265625 -0.703125 C 9.898438 -0.378906 9.394531 -0.125 8.75 0.0625 C 8.113281 0.25 7.453125 0.34375 6.765625 0.34375 C 5.484375 0.34375 4.390625 0.0507812 3.484375 -0.53125 C 2.585938 -1.125 1.90625 -1.929688 1.4375 -2.953125 C 0.976562 -3.984375 0.75 -5.140625 0.75 -6.421875 C 0.75 -8.046875 1.046875 -9.382812 1.640625 -10.4375 C 2.242188 -11.5 3.039062 -12.285156 4.03125 -12.796875 C 5.019531 -13.316406 6.082031 -13.578125 7.21875 -13.578125 C 7.769531 -13.578125 8.351562 -13.503906 8.96875 -13.359375 C 9.582031 -13.210938 10.054688 -12.992188 10.390625 -12.703125 L 11.265625 -11.40625 L 11.265625 -18.359375 Z M 7.09375 -1.296875 C 7.820312 -1.296875 8.503906 -1.46875 9.140625 -1.8125 C 9.773438 -2.15625 10.285156 -2.703125 10.671875 -3.453125 C 11.066406 -4.210938 11.265625 -5.222656 11.265625 -6.484375 L 11.265625 -7.21875 C 11.265625 -8.363281 11.054688 -9.28125 10.640625 -9.96875 C 10.234375 -10.664062 9.71875 -11.164062 9.09375 -11.46875 C 8.476562 -11.78125 7.851562 -11.9375 7.21875 -11.9375 C 6.050781 -11.9375 5.070312 -11.488281 4.28125 -10.59375 C 3.488281 -9.707031 3.09375 -8.398438 3.09375 -6.671875 C 3.09375 -5.671875 3.242188 -4.765625 3.546875 -3.953125 C 3.847656 -3.148438 4.289062 -2.503906 4.875 -2.015625 C 5.46875 -1.535156 6.207031 -1.296875 7.09375 -1.296875 Z M 7.09375 -1.296875 "/></g></g><g style="fill:#000000;fill-opacity:1;"><g transform="translate(204.183286, 222.74376)"><path style="stroke:none" d="M 2.921875 -17.578125 C 3.304688 -17.578125 3.628906 -17.441406 3.890625 -17.171875 C 4.160156 -16.910156 4.296875 -16.585938 4.296875 -16.203125 C 4.296875 -15.816406 4.160156 -15.488281 3.890625 -15.21875 C 3.628906 -14.957031 3.304688 -14.828125 2.921875 -14.828125 C 2.535156 -14.828125 2.207031 -14.957031 1.9375 -15.21875 C 1.675781 -15.488281 1.546875 -15.816406 1.546875 -16.203125 C 1.546875 -16.585938 1.675781 -16.910156 1.9375 -17.171875 C 2.207031 -17.441406 2.535156 -17.578125 2.921875 -17.578125 Z M 4 0 L 1.84375 0 L 1.84375 -13.234375 L 4 -13.234375 Z M 4 0 "/></g></g><g style="fill:#000000;fill-opacity:1;"><g transform="translate(211.051103, 222.74376)"><path style="stroke:none" d="M 6.96875 -13.578125 C 8.550781 -13.578125 9.828125 -13.140625 10.796875 -12.265625 C 11.773438 -11.398438 12.363281 -10.238281 12.5625 -8.78125 L 10.3125 -8.78125 C 9.84375 -10.882812 8.710938 -11.9375 6.921875 -11.9375 C 6.234375 -11.9375 5.597656 -11.753906 5.015625 -11.390625 C 4.429688 -11.023438 3.960938 -10.457031 3.609375 -9.6875 C 3.265625 -8.925781 3.09375 -7.941406 3.09375 -6.734375 C 3.09375 -5.453125 3.265625 -4.410156 3.609375 -3.609375 C 3.953125 -2.816406 4.398438 -2.234375 4.953125 -1.859375 C 5.515625 -1.484375 6.117188 -1.296875 6.765625 -1.296875 C 7.648438 -1.296875 8.382812 -1.539062 8.96875 -2.03125 C 9.5625 -2.519531 9.96875 -3.25 10.1875 -4.21875 L 12.4375 -4.21875 C 12.113281 -2.6875 11.4375 -1.539062 10.40625 -0.78125 C 9.375 -0.03125 8.117188 0.34375 6.640625 0.34375 C 5.523438 0.34375 4.519531 0.101562 3.625 -0.375 C 2.738281 -0.851562 2.035156 -1.601562 1.515625 -2.625 C 1.003906 -3.65625 0.75 -4.976562 0.75 -6.59375 C 0.75 -8.09375 1.035156 -9.359375 1.609375 -10.390625 C 2.179688 -11.429688 2.941406 -12.222656 3.890625 -12.765625 C 4.835938 -13.304688 5.863281 -13.578125 6.96875 -13.578125 Z M 6.96875 -13.578125 "/></g></g><g style="fill:#000000;fill-opacity:1;"><g transform="translate(225.185951, 222.74376)"><path style="stroke:none" d="M 9.4375 0 L 9.21875 -1.890625 L 8.484375 -0.46875 C 8.035156 -0.15625 7.53125 0.0546875 6.96875 0.171875 C 6.40625 0.285156 5.804688 0.34375 5.171875 0.34375 C 4.367188 0.34375 3.644531 0.195312 3 -0.09375 C 2.363281 -0.382812 1.851562 -0.804688 1.46875 -1.359375 C 1.09375 -1.921875 0.90625 -2.609375 0.90625 -3.421875 C 0.90625 -4.921875 1.492188 -6.050781 2.671875 -6.8125 C 3.847656 -7.582031 5.738281 -7.96875 8.34375 -7.96875 L 9.1875 -7.96875 L 9.1875 -8.3125 C 9.1875 -8.59375 9.1875 -8.863281 9.1875 -9.125 C 9.1875 -9.394531 9.171875 -9.65625 9.140625 -9.90625 C 9.085938 -10.53125 8.863281 -11.023438 8.46875 -11.390625 C 8.082031 -11.753906 7.445312 -11.9375 6.5625 -11.9375 C 5.664062 -11.9375 4.988281 -11.695312 4.53125 -11.21875 C 4.070312 -10.75 3.800781 -10.054688 3.71875 -9.140625 L 1.46875 -9.140625 C 1.570312 -10.554688 2.082031 -11.648438 3 -12.421875 C 3.914062 -13.191406 5.101562 -13.578125 6.5625 -13.578125 C 8.144531 -13.578125 9.296875 -13.265625 10.015625 -12.640625 C 10.734375 -12.015625 11.148438 -11.164062 11.265625 -10.09375 C 11.296875 -9.820312 11.3125 -9.53125 11.3125 -9.21875 C 11.320312 -8.914062 11.328125 -8.625 11.328125 -8.34375 L 11.328125 -3.375 C 11.328125 -2.875 11.34375 -2.367188 11.375 -1.859375 C 11.414062 -1.347656 11.484375 -0.726562 11.578125 0 Z M 5.890625 -1.296875 C 6.890625 -1.296875 7.6875 -1.613281 8.28125 -2.25 C 8.882812 -2.894531 9.1875 -3.816406 9.1875 -5.015625 L 9.1875 -6.359375 C 7.375 -6.492188 5.929688 -6.347656 4.859375 -5.921875 C 3.785156 -5.503906 3.25 -4.726562 3.25 -3.59375 C 3.25 -2.789062 3.484375 -2.207031 3.953125 -1.84375 C 4.429688 -1.476562 5.078125 -1.296875 5.890625 -1.296875 Z M 5.890625 -1.296875 "/></g></g><g style="fill:#000000;fill-opacity:1;"><g transform="translate(239.370754, 222.74376)"><path style="stroke:none" d="M 3.890625 -18.359375 L 3.890625 -3.796875 C 3.890625 -3.597656 3.890625 -3.394531 3.890625 -3.1875 C 3.890625 -2.976562 3.898438 -2.765625 3.921875 -2.546875 C 3.953125 -2.128906 4.082031 -1.84375 4.3125 -1.6875 C 4.550781 -1.53125 4.960938 -1.484375 5.546875 -1.546875 L 5.546875 0 C 5.304688 0.03125 5.050781 0.0507812 4.78125 0.0625 C 4.519531 0.0820312 4.265625 0.09375 4.015625 0.09375 C 3.398438 0.09375 2.878906 -0.0390625 2.453125 -0.3125 C 2.035156 -0.582031 1.804688 -1.132812 1.765625 -1.96875 C 1.753906 -2.207031 1.75 -2.46875 1.75 -2.75 C 1.75 -3.03125 1.75 -3.351562 1.75 -3.71875 L 1.75 -18.359375 Z M 3.890625 -18.359375 "/></g></g><g style="fill:#000000;fill-opacity:1;"><g transform="translate(246.463332, 222.74376)"><path style="stroke:none" d=""/></g></g><g style="fill:#000000;fill-opacity:1;"><g transform="translate(252.781752, 222.74376)"><path style="stroke:none" d="M 9.3125 -17.578125 C 10.78125 -17.578125 12.007812 -17.320312 13 -16.8125 C 14 -16.3125 14.773438 -15.625 15.328125 -14.75 C 15.878906 -13.875 16.210938 -12.867188 16.328125 -11.734375 L 16.359375 -11.484375 L 14.203125 -11.484375 L 14.15625 -11.734375 C 13.90625 -12.960938 13.382812 -13.957031 12.59375 -14.71875 C 11.800781 -15.488281 10.691406 -15.875 9.265625 -15.875 C 8.097656 -15.875 7.082031 -15.5625 6.21875 -14.9375 C 5.363281 -14.3125 4.707031 -13.453125 4.25 -12.359375 C 3.800781 -11.273438 3.578125 -10.035156 3.578125 -8.640625 C 3.578125 -7.222656 3.800781 -5.960938 4.25 -4.859375 C 4.695312 -3.765625 5.335938 -2.90625 6.171875 -2.28125 C 7.003906 -1.65625 7.984375 -1.34375 9.109375 -1.34375 C 10.546875 -1.34375 11.660156 -1.722656 12.453125 -2.484375 C 13.242188 -3.253906 13.757812 -4.257812 14 -5.5 L 14.0625 -5.75 L 16.203125 -5.75 L 16.1875 -5.5 C 16.082031 -4.457031 15.742188 -3.488281 15.171875 -2.59375 C 14.609375 -1.707031 13.816406 -0.992188 12.796875 -0.453125 C 11.773438 0.078125 10.503906 0.34375 8.984375 0.34375 C 7.316406 0.34375 5.898438 -0.046875 4.734375 -0.828125 C 3.578125 -1.609375 2.691406 -2.664062 2.078125 -4 C 1.472656 -5.34375 1.171875 -6.859375 1.171875 -8.546875 C 1.171875 -10.285156 1.507812 -11.835938 2.1875 -13.203125 C 2.863281 -14.566406 3.8125 -15.632812 5.03125 -16.40625 C 6.25 -17.1875 7.675781 -17.578125 9.3125 -17.578125 Z M 9.3125 -17.578125 "/></g></g><g style="fill:#000000;fill-opacity:1;"><g transform="translate(271.161946, 222.74376)"><path style="stroke:none" d="M 3.890625 -18.359375 L 3.890625 -3.796875 C 3.890625 -3.597656 3.890625 -3.394531 3.890625 -3.1875 C 3.890625 -2.976562 3.898438 -2.765625 3.921875 -2.546875 C 3.953125 -2.128906 4.082031 -1.84375 4.3125 -1.6875 C 4.550781 -1.53125 4.960938 -1.484375 5.546875 -1.546875 L 5.546875 0 C 5.304688 0.03125 5.050781 0.0507812 4.78125 0.0625 C 4.519531 0.0820312 4.265625 0.09375 4.015625 0.09375 C 3.398438 0.09375 2.878906 -0.0390625 2.453125 -0.3125 C 2.035156 -0.582031 1.804688 -1.132812 1.765625 -1.96875 C 1.753906 -2.207031 1.75 -2.46875 1.75 -2.75 C 1.75 -3.03125 1.75 -3.351562 1.75 -3.71875 L 1.75 -18.359375 Z M 3.890625 -18.359375 "/></g></g><g style="fill:#000000;fill-opacity:1;"><g transform="translate(278.254525, 222.74376)"><path style="stroke:none" d="M 2.921875 -17.578125 C 3.304688 -17.578125 3.628906 -17.441406 3.890625 -17.171875 C 4.160156 -16.910156 4.296875 -16.585938 4.296875 -16.203125 C 4.296875 -15.816406 4.160156 -15.488281 3.890625 -15.21875 C 3.628906 -14.957031 3.304688 -14.828125 2.921875 -14.828125 C 2.535156 -14.828125 2.207031 -14.957031 1.9375 -15.21875 C 1.675781 -15.488281 1.546875 -15.816406 1.546875 -16.203125 C 1.546875 -16.585938 1.675781 -16.910156 1.9375 -17.171875 C 2.207031 -17.441406 2.535156 -17.578125 2.921875 -17.578125 Z M 4 0 L 1.84375 0 L 1.84375 -13.234375 L 4 -13.234375 Z M 4 0 "/></g></g><g style="fill:#000000;fill-opacity:1;"><g transform="translate(285.122341, 222.74376)"><path style="stroke:none" d="M 12.984375 -9.71875 C 13.015625 -9.382812 13.03125 -9.050781 13.03125 -8.71875 C 13.03125 -8.394531 13.03125 -7.96875 13.03125 -7.4375 L 13.03125 0 L 10.890625 0 L 10.890625 -7.296875 C 10.890625 -7.628906 10.890625 -7.941406 10.890625 -8.234375 C 10.890625 -8.535156 10.875 -8.851562 10.84375 -9.1875 C 10.769531 -9.96875 10.503906 -10.613281 10.046875 -11.125 C 9.585938 -11.632812 8.84375 -11.890625 7.8125 -11.890625 C 7.132812 -11.890625 6.503906 -11.695312 5.921875 -11.3125 C 5.335938 -10.925781 4.867188 -10.289062 4.515625 -9.40625 C 4.171875 -8.53125 4 -7.332031 4 -5.8125 L 4 0 L 1.84375 0 L 1.84375 -13.234375 L 4 -13.234375 L 4 -10.96875 L 4.8125 -12.484375 C 5.382812 -12.921875 5.9375 -13.210938 6.46875 -13.359375 C 7 -13.503906 7.597656 -13.578125 8.265625 -13.578125 C 9.710938 -13.578125 10.832031 -13.222656 11.625 -12.515625 C 12.425781 -11.804688 12.878906 -10.875 12.984375 -9.71875 Z M 12.984375 -9.71875 "/></g></g><g style="fill:#000000;fill-opacity:1;"><g transform="translate(300.855437, 222.74376)"><path style="stroke:none" d="M 2.921875 -17.578125 C 3.304688 -17.578125 3.628906 -17.441406 3.890625 -17.171875 C 4.160156 -16.910156 4.296875 -16.585938 4.296875 -16.203125 C 4.296875 -15.816406 4.160156 -15.488281 3.890625 -15.21875 C 3.628906 -14.957031 3.304688 -14.828125 2.921875 -14.828125 C 2.535156 -14.828125 2.207031 -14.957031 1.9375 -15.21875 C 1.675781 -15.488281 1.546875 -15.816406 1.546875 -16.203125 C 1.546875 -16.585938 1.675781 -16.910156 1.9375 -17.171875 C 2.207031 -17.441406 2.535156 -17.578125 2.921875 -17.578125 Z M 4 0 L 1.84375 0 L 1.84375 -13.234375 L 4 -13.234375 Z M 4 0 "/></g></g><g style="fill:#000000;fill-opacity:1;"><g transform="translate(307.723254, 222.74376)"><path style="stroke:none" d="M 6.96875 -13.578125 C 8.550781 -13.578125 9.828125 -13.140625 10.796875 -12.265625 C 11.773438 -11.398438 12.363281 -10.238281 12.5625 -8.78125 L 10.3125 -8.78125 C 9.84375 -10.882812 8.710938 -11.9375 6.921875 -11.9375 C 6.234375 -11.9375 5.597656 -11.753906 5.015625 -11.390625 C 4.429688 -11.023438 3.960938 -10.457031 3.609375 -9.6875 C 3.265625 -8.925781 3.09375 -7.941406 3.09375 -6.734375 C 3.09375 -5.453125 3.265625 -4.410156 3.609375 -3.609375 C 3.953125 -2.816406 4.398438 -2.234375 4.953125 -1.859375 C 5.515625 -1.484375 6.117188 -1.296875 6.765625 -1.296875 C 7.648438 -1.296875 8.382812 -1.539062 8.96875 -2.03125 C 9.5625 -2.519531 9.96875 -3.25 10.1875 -4.21875 L 12.4375 -4.21875 C 12.113281 -2.6875 11.4375 -1.539062 10.40625 -0.78125 C 9.375 -0.03125 8.117188 0.34375 6.640625 0.34375 C 5.523438 0.34375 4.519531 0.101562 3.625 -0.375 C 2.738281 -0.851562 2.035156 -1.601562 1.515625 -2.625 C 1.003906 -3.65625 0.75 -4.976562 0.75 -6.59375 C 0.75 -8.09375 1.035156 -9.359375 1.609375 -10.390625 C 2.179688 -11.429688 2.941406 -12.222656 3.890625 -12.765625 C 4.835938 -13.304688 5.863281 -13.578125 6.96875 -13.578125 Z M 6.96875 -13.578125 "/></g></g></g></svg>